# xmcd
#
# Track frame offsets: 
#        150
#        30225
#        63675
#        81600
#        94425
#        124500
#        141750
#        157350
#        169220
#        184370
#        199970
#        217970
#
# Disc length: 3216 seconds
#
# Revision: 0
# Processed by: cddbd v1.5.2PL0 Copyright (c) Steve Scherf et al.
# Submitted via: ExactAudioCopy v0.95b4
#
DISCID=b90c8e0c
DTITLE=David Bowie  - Sound and Vision - Earl's Court London - 07-01-78 
DTITLE=Disc 1  FLAC
DYEAR=1900
DGENRE=
TTITLE0=Warszawa
TTITLE1=Heroes
TTITLE2=What In The World?
TTITLE3=Be My Wife
TTITLE4=The Jean Genie
TTITLE5=Blackout
TTITLE6=Sense Of Doubt
TTITLE7=Speed Of Life
TTITLE8=Sound And Vision
TTITLE9=Breaking Glass
TTITLE10=Fame
TTITLE11=Beauty And The Beast
EXTD=
EXTT0=
EXTT1=
EXTT2=
EXTT3=
EXTT4=
EXTT5=
EXTT6=
EXTT7=
EXTT8=
EXTT9=
EXTT10=
EXTT11=
PLAYORDER=
